PathFileType	4	(X/Y/Z)	C:\Users\willi\Documents\UniDataLokal\DATA_Hans_PhD\TD03\3DGAIT_B_W4\marker_experimental.trc
DataRate	CameraRate	NumFrames	NumMarkers	Units	OrigDataRate	OrigDataStartFrame	OrigNumFrames
100.000000	100.000000	3	137	mm	100.000000	78	210
Frame#	Time	LFEO			LFEA			LFEL			LFEP			LFOO			LFOA			LFOL			LFOP			LTIO			LTIA			LTIL			LTIP			LTOO			LTOA			LTOL			LTOP			PELO			PELA			PELL			PELP			RFEO			RFEA			RFEL			RFEP			RFOO			RFOA			RFOL			RFOP			RTIO			RTIA			RTIL			RTIP			RTOO			RTOA			RTOL			RTOP			TRXO			TRXA			TRXL			TRXP			C7			T10			CLAV			STRN			RBAK			LASI			RASI			LPSI			RPSI			LTHI			LKNE			LMKNE			LPAT			LTUB			LTIB			LANK			LMMA			LHEE			LTOE			LD5M			RTHI			RKNE			RMKNE			RPAT			RTUB			RTIB			RANK			RMMA			RHEE			RTOE			RD5M			LTH1			LTH2			LTH3			LTB1			LTB2			LTB3			LTB4			LTB5			RTH1			RTH2			RTH3			RTB1			RTB2			RTB3			RTB4			RTB5			LIC			RIC			CentreOfMass			CentreOfMassFloor			LHipAngles			LKneeAngles			LAnkleAngles			LAbsAnkleAngle			RHipAngles			RKneeAngles			RAnkleAngles			RAbsAnkleAngle			LSpineAngles			RSpineAngles			LThoraxAngles			RThoraxAngles			LPelvisAngles			RPelvisAngles			LFootProgressAngles			RFootProgressAngles			LAnklePower			RAnklePower			LKneePower			RKneePower			LHipPower			RHipPower			LWaistPower			RWaistPower			LGroundReactionForce			RGroundReactionForce			LNormalisedGRF			RNormalisedGRF			LAnkleForce			RAnkleForce			LKneeForce			RKneeForce			LHipForce			RHipForce			LWaistForce			RWaistForce			LGroundReactionMoment			RGroundReactionMoment			LAnkleMoment			RAnkleMoment			LKneeMoment			RKneeMoment			LHipMoment			RHipMoment			LWaistMoment			RWaistMoment			
		X1	Y1	Z1	X2	Y2	Z2	X3	Y3	Z3	X4	Y4	Z4	X5	Y5	Z5	X6	Y6	Z6	X7	Y7	Z7	X8	Y8	Z8	X9	Y9	Z9	X10	Y10	Z10	X11	Y11	Z11	X12	Y12	Z12	X13	Y13	Z13	X14	Y14	Z14	X15	Y15	Z15	X16	Y16	Z16	X17	Y17	Z17	X18	Y18	Z18	X19	Y19	Z19	X20	Y20	Z20	X21	Y21	Z21	X22	Y22	Z22	X23	Y23	Z23	X24	Y24	Z24	X25	Y25	Z25	X26	Y26	Z26	X27	Y27	Z27	X28	Y28	Z28	X29	Y29	Z29	X30	Y30	Z30	X31	Y31	Z31	X32	Y32	Z32	X33	Y33	Z33	X34	Y34	Z34	X35	Y35	Z35	X36	Y36	Z36	X37	Y37	Z37	X38	Y38	Z38	X39	Y39	Z39	X40	Y40	Z40	X41	Y41	Z41	X42	Y42	Z42	X43	Y43	Z43	X44	Y44	Z44	X45	Y45	Z45	X46	Y46	Z46	X47	Y47	Z47	X48	Y48	Z48	X49	Y49	Z49	X50	Y50	Z50	X51	Y51	Z51	X52	Y52	Z52	X53	Y53	Z53	X54	Y54	Z54	X55	Y55	Z55	X56	Y56	Z56	X57	Y57	Z57	X58	Y58	Z58	X59	Y59	Z59	X60	Y60	Z60	X61	Y61	Z61	X62	Y62	Z62	X63	Y63	Z63	X64	Y64	Z64	X65	Y65	Z65	X66	Y66	Z66	X67	Y67	Z67	X68	Y68	Z68	X69	Y69	Z69	X70	Y70	Z70	X71	Y71	Z71	X72	Y72	Z72	X73	Y73	Z73	X74	Y74	Z74	X75	Y75	Z75	X76	Y76	Z76	X77	Y77	Z77	X78	Y78	Z78	X79	Y79	Z79	X80	Y80	Z80	X81	Y81	Z81	X82	Y82	Z82	X83	Y83	Z83	X84	Y84	Z84	X85	Y85	Z85	X86	Y86	Z86	X87	Y87	Z87	X88	Y88	Z88	X89	Y89	Z89	X90	Y90	Z90	X91	Y91	Z91	X92	Y92	Z92	X93	Y93	Z93	X94	Y94	Z94	X95	Y95	Z95	X96	Y96	Z96	X97	Y97	Z97	X98	Y98	Z98	X99	Y99	Z99	X100	Y100	Z100	X101	Y101	Z101	X102	Y102	Z102	X103	Y103	Z103	X104	Y104	Z104	X105	Y105	Z105	X106	Y106	Z106	X107	Y107	Z107	X108	Y108	Z108	X109	Y109	Z109	X110	Y110	Z110	X111	Y111	Z111	X112	Y112	Z112	X113	Y113	Z113	X114	Y114	Z114	X115	Y115	Z115	X116	Y116	Z116	X117	Y117	Z117	X118	Y118	Z118	X119	Y119	Z119	X120	Y120	Z120	X121	Y121	Z121	X122	Y122	Z122	X123	Y123	Z123	X124	Y124	Z124	X125	Y125	Z125	X126	Y126	Z126	X127	Y127	Z127	X128	Y128	Z128	X129	Y129	Z129	X130	Y130	Z130	X131	Y131	Z131	X132	Y132	Z132	X133	Y133	Z133	X134	Y134	Z134	X135	Y135	Z135	X136	Y136	Z136	X137	Y137	Z137	

79	0.78	-299.5635375976562	470.9791259765625	238.4413604736328	21.76284790039064	607.6135864257812	279.0787658691406	-253.8978424072265	467.2442016601562	-110.0865936279297	-434.6006469726562	794.843505859375	217.2775573730468	-119.3051681518555	67.08554077148439	186.5107727050781	-123.6213912963867	261.1937561035156	185.1782379150391	-144.2050018310547	65.2100067138672	-6.037628173828134	-311.8143005371094	62.9760208129883	211.4455871582031	-254.6583099365234	76.92388916015626	216.6619567871093	99.91493225097658	123.3468017578125	107.7973480224609	-365.2056274414062	84.05827331542972	-140.3495178222657	-296.9180603027344	447.7645263671875	237.1582794189453	-55.13544464111329	68.45536804199219	178.1991729736328	-56.57418060302735	133.1581115722656	177.7549743652344	-63.43540573120117	67.83018493652344	114.016357421875	-119.30517578125	67.08554077148439	186.5107879638672	-448.5859680175781	792.6094970703125	282.4917907714844	-318.4951477050781	781.0368041992188	309.99365234375	-420.6152954101562	797.0773315429688	152.0633239746093	-438.1975097656249	925.50048828125	289.2718200683594	-552.7280883789062	456.0925292968751	351.7389526367187	-222.424560546875	367.66650390625	406.2374572753906	-501.1432189941406	438.0550231933594	9.82769775390622	-462.5712890624999	790.37548828125	347.7060241699219	-717.3253784179688	50.1249046325684	391.7795410156249	-606.6646118164062	208.747314453125	395.4580078124999	-676.7623901367188	26.17762565612797	204.158706665039	-870.7178344726562	158.2260894775391	344.8189392089843	-816.4000854492188	135.6489868164063	346.4621276855468	-543.34033203125	-91.7135314941406	509.1845703124999	-687.8661499023438	35.73739624023442	-8.827392578125043	-568.1031494140625	437.4070739746094	351.4312133789062	-666.1946411132812	14.09118175506596	407.4330749511718	-629.3076782226562	66.96533203125004	408.6592407226562	-652.6736450195312	6.108753204345743	344.8928222656249	-717.325439453125	50.1249160766602	391.7795104980468	-444.7051391601562	1262.705200195312	283.0149536132812	nan	nan	nan	nan	nan	nan	nan	nan	nan	-552.5042724609374	1328.189575195312	286.8650207519531	-574.1343994140624	1023.64501953125	268.7164001464843	-440.2310180664062	1262.985717773438	283.4071655273438	-388.9813842773437	1099.827514648438	298.1495971679688	-575.8058471679686	1230.198486328125	412.6958923339843	-380.1091918945312	881.4151000976562	189.4543914794922	-425.4768981933593	874.1683349609375	401.005859375	-560.5682373046875	889.595947265625	212.8692016601562	-576.5640869140625	896.0465698242188	296.4214477539062	-325.1224670410156	567.7979125976562	115.0077362060547	-291.3793945312499	470.3097229003906	175.978775024414	-319.0302124023438	448.4294738769531	291.9176635742188	-250.3530578613281	467.8270874023438	238.2992248535156	-250.9305267333984	411.2566223144531	229.4648895263672	-300.5517883300781	213.224105834961	125.3085861206055	-265.8963012695312	77.64915466308595	180.3689575195312	-248.9661560058594	81.42819976806642	260.102783203125	-319.3312683105469	31.50843620300295	214.0607757568359	-120.0927124023438	36.39766311645509	190.1074066162109	-150.3333892822266	18.67771911621095	144.9663391113281	-553.8724975585938	517.83935546875	458.8617248535156	-562.411865234375	459.4786071777344	415.9242858886718	-535.8405151367188	443.4019470214844	286.9074096679687	-487.6448974609375	405.4296264648438	368.5398864746093	-545.7027587890625	358.0506591796876	372.9022216796874	-763.0765991210938	260.8086242675782	431.8598022460937	-828.7334594726562	145.2358856201172	380.5536193847656	-783.1998901367188	140.5886383056641	309.8124389648437	-881.4357299804688	146.3502044677735	326.3508911132812	-730.5288696289062	37.69659042358403	379.8375244140624	-772.1004028320312	29.59514045715337	414.4828491210937	-434.2485351562499	587.3760986328125	161.0672149658203	-379.5854797363281	560.474609375	142.8590850830078	-392.2228088378906	502.9893798828125	173.9452056884765	-254.5134887695312	287.552978515625	239.7245788574218	-240.9803771972656	243.1302642822266	190.6279296875	-245.1517791748047	194.7735137939453	238.7129364013672	-294.8517761230469	429.072998046875	167.2294921875	-326.0316772460938	412.9957275390625	285.26220703125	-570.4058227539062	612.7847900390625	417.3565368652343	-526.161376953125	557.2738037109375	427.5321350097656	-575.9542236328125	511.8915100097657	410.3865661621093	-606.0980224609375	301.2343139648438	353.4382324218749	-659.8204956054688	274.8663330078126	402.4203491210937	-681.7254028320312	234.9421539306641	346.5013122558593	-580.32958984375	434.2052001953126	413.3223876953124	-567.6304321289062	408.4352416992188	290.0627746582031	-453.5285034179687	951.3931274414062	134.9871215820312	-504.2082824707031	953.9517822265625	421.8047485351562	-446.3898925781249	828.50390625	287.8282470703125	-446.389892578125	2.733349765587658e-14	287.8282470703125	-0.5254417061805712	-5.256176471710205	-27.82234382629395	4.565067291259765	-24.32813835144043	-16.82949447631836	1.873140931129456	9.797262191772461	5.715458393096924	-3.448503175219905e-16	0	5.631833076477051	5.639399528503417	2.162763357162475	9.700360298156738	2.399932146072388	-16.08095932006836	-24.28328323364258	2.260426282882691	10.54244613647461	-4.398274421691895	2.647617400408155e-16	0	-4.323887348175049	-1.787320494651794	7.012714862823486	8.276149749755859	1.787320494651794	-7.012714862823486	8.276149749755859	-0.4164325594902037	5.00029468536377	3.623689413070679	0.4164325594902033	-5.00029468536377	3.623689413070679	-2.91180920600891	11.90684413909912	-4.469871520996094	2.911809206008911	-11.90684413909912	-4.469871520996094	-0.3965176045894683	-7.378503799438477	91.22292327880859	-1.123182296752934	-14.04957485198975	54.82627487182617	6.403654848328633e-18	0.1045796200633049	3.921107706425045e-34	1.895206196405112e-16	3.095106601715088	1.160479101075875e-32	-2.276215684988417e-17	-0.371734231710434	-1.393780126395033e-33	-2.946376531525762e-17	-0.481179803609848	-1.804135294207953e-33	1.05658870880905e-17	0.1725540310144424	6.469739901291191e-34	4.333386507139082e-17	0.7076957225799561	2.653433957718103e-33	-1.168011373127044e-17	-0.1907507330179214	-7.152006947338698e-34	-1.168011373127044e-17	-0.1907507330179214	-7.152006947338698e-34	-1.152961492538452	5.980191707611084	0.234159618616104	1.567730307579041	4.522262573242188	-0.2552728056907653	2.386948347091679	60.96015930175781	-11.75292015075684	2.602169275283815	46.0984992980957	15.98094081878662	-0.1488488167524334	0.9425945281982422	-5.753182411193848	0.008827214129269477	1.352200388908386	-4.421122550964355	0.0702930763363835	-5.289464950561523	-0.006080094724893566	-0.4396435320377351	-3.589943647384644	-1.849051117897034	-0.3367746174335483	-3.833941698074341	1.588427424430847	0.323469966650009	-3.074865341186523	-0.3881711661815643	0.4941123127937314	-5.631657600402832	0.3135716021060944	0.4941123127937314	-5.631657600402832	0.3135716021060944	129.396484375	24.36820220947265	140.7410583496094	-576.7398681640626	275.1477050781251	968.6438598632812	33.3101463317871	-14.35237121582031	138.5424346923828	-95.81941223144527	58.88997650146485	-612.9896850585938	118.591926574707	-4.144038677215583	-228.4750213623047	-0.02021628431974742	50.41594314575195	-129.0572967529297	-78.09397888183591	-19.5006103515625	-370.2694091796875	-171.9092102050782	26.47249603271485	349.9874572753906	232.2863922119141	-4.697662353515639	6.530411720275893	-232.2863922119141	4.697662353515639	6.530411720275865	
80	0.79	-289.4916381835937	471.7074279785156	237.2565307617187	31.85919189453127	605.723388671875	281.6068420410156	-239.6501159667968	467.1617736816406	-110.1462707519531	-421.5637512207031	796.0724487304688	214.0640563964843	-117.7429580688477	65.57666778564455	186.3537902832031	-120.2572937011719	259.7210693359375	186.5542602539062	-142.5414123535156	65.45433044433595	-6.216766357421884	-310.2971801757812	63.05730438232424	211.1517486572265	-253.0173950195312	76.43238830566408	216.5090637207031	104.498779296875	114.8404388427734	113.2862854003906	-357.6681213378906	85.62135314941409	-142.5337219238282	-287.3444519042969	448.438232421875	236.03515625	-53.55821228027344	66.41643524169922	178.0877838134766	-54.39630889892579	131.1312561035156	178.1545715332031	-61.82438659667969	66.37564086914062	113.897575378418	-117.7429580688477	65.57667541503908	186.3537902832031	-435.0817565917968	793.2525634765625	279.3540344238281	-304.7640991210937	781.8738403320312	305.8443298339844	-408.0457153320312	798.89208984375	148.7739868164062	-425.0686340332031	926.11572265625	287.1653442382812	-534.092529296875	454.7692871093751	352.7546997070312	-202.0054321289062	371.4715576171875	405.9003295898438	-484.55517578125	433.8817443847657	10.47622680664059	-448.5997314453124	790.4327392578125	344.6440734863281	-714.9706420898438	48.76828002929692	392.0866394042968	-591.7827758789062	197.6180725097657	401.5150146484374	-672.303466796875	25.31554985046391	204.8704986572265	-857.885498046875	170.0700073242188	344.3202819824218	-805.6533203125	143.0616455078126	346.5976867675781	-542.3809814453125	-89.61154174804685	514.13916015625	-675.877197265625	36.93942260742192	-4.707763671875042	-549.9873046875	436.5247192382813	352.3943481445312	-667.3323364257812	8.334356307983439	408.0087585449218	-626.2697143554688	57.95095062255863	411.1515197753906	-653.1099853515625	0.5167722702026767	345.6033935546874	-714.9706420898438	48.76830291748051	392.0866394042968	-432.8305358886718	1264	281.0538635253906	nan	nan	nan	nan	nan	nan	nan	nan	nan	-540.9782104492186	1328.751098632812	284.4447021484374	-561.3260498046874	1024.077514648438	267.2639465332031	-428.3576354980468	1264.302490234375	281.4433288574219	-376.1553955078124	1101.391723632812	296.1124267578125	-564.3021240234374	1230.76171875	410.0719909667968	-367.6469116210937	883.026611328125	187.0689239501953	-411.2958679199218	873.9217529296875	397.8871154785156	-547.8863525390625	890.49609375	211.3530578613281	-563.4301147460938	896.0947265625	295.4732055664062	-312.8300476074218	568.7010498046875	113.2692565917969	-280.5454406738281	470.8914794921875	174.9002838134765	-309.0745849609375	449.5999145507812	290.3134155273438	-240.1845550537109	467.887451171875	237.1409454345703	-241.4357299804687	411.1837463378906	228.1758422851562	-294.4022216796875	213.3841705322266	124.1292724609375	-263.6476135253906	77.36577606201173	180.0381469726562	-246.791748046875	80.95458984375001	259.8212890625	-318.1312866210938	32.39708709716799	213.8434753417968	-117.8420715332031	34.5678939819336	189.5123901367188	-149.2149047851562	16.50357246398927	144.4949951171875	-535.5542602539062	516.9677734375	459.3752441406249	-543.3859252929688	458.6878356933594	416.9674377441406	-515.7020874023438	441.0073242187501	288.3107604980468	-468.1507873535156	403.4450988769532	371.2210998535156	-528.0875854492188	356.7275695800782	375.6623229980468	-749.8321533203125	267.3581848144532	431.4978637695312	-818.1557006835938	153.2852325439454	380.4417419433593	-771.3118286132812	145.9542694091797	310.9958496093749	-868.85498046875	157.4908905029297	325.0610351562499	-729.1543579101562	38.09270477294926	379.4862670898437	-770.13720703125	33.03173446655278	413.8327026367187	-422.0846557617187	588.9833984375	157.9778442382812	-367.3725891113281	561.7894897460938	140.4262084960937	-380.7099609374999	504.3795471191406	171.3355407714843	-247.8406524658203	287.0982666015625	238.932388305664	-235.0375823974609	242.2288055419922	190.0721893310547	-240.5011444091797	194.1147003173828	238.2297668457031	-284.5308227539062	429.4761962890625	166.074462890625	-316.6286010742188	414.2416076660156	283.8268127441406	-553.2665405273438	611.1785278320312	416.6846618652343	-508.2277832031249	556.4364624023438	427.7088623046874	-557.2522583007812	510.1374816894532	410.8209838867187	-590.0109252929688	301.5447387695313	356.0961303710937	-645.6340942382812	277.7882690429688	404.0757141113281	-667.5172729492188	237.6480712890625	348.5340881347656	-561.5918579101562	433.9951477050782	414.4958496093749	-547.4754028320312	406.2808227539063	291.8198852539062	-440.3711242675781	953.0439453125	133.1535949707031	-489.0062255859374	954.3199462890625	420.4132995605468	-434.5036621093749	829.625732421875	286.4790344238281	-434.503662109375	2.660567595100246e-14	286.4790344238281	-1.574328541755675	-4.473547458648682	-27.35332107543945	4.44895839691162	-24.12429809570312	-17.64912986755371	1.577180743217468	8.889529228210449	4.921724319458008	-2.977399288934442e-16	0	4.862462043762207	6.535580158233642	1.956823348999023	8.898853302001953	1.933887600898743	-17.01565361022949	-26.79657745361328	2.422237873077393	11.21050357818604	-0.9446929693222045	5.674193979525924e-17	0	-0.9266662001609802	-2.332342624664307	6.593457698822021	8.435847282409668	2.332342624664306	-6.593457698822021	8.435847282409668	-0.307053118944168	4.965040683746338	3.897280216217041	0.3070531189441676	-4.965040683746338	3.897280216217041	-3.355168104171752	11.46774291992188	-4.309898853302002	3.355168104171752	-11.46774291992188	-4.309898853302002	0.05963288247584696	-7.337795257568359	90.74961090087891	-2.883026838302616	-14.29571723937988	49.67642593383789	7.805190665548918e-18	0.1274684369564056	4.779300882649641e-34	1.54578845842932e-16	2.524464130401611	9.465224438871941e-33	-2.682858590909044e-17	-0.4381440579891205	-1.642777092960869e-33	-2.846847978405184e-17	-0.4649255573749542	-1.743191632206511e-33	7.612068753277886e-18	0.1243145167827606	4.661047816795673e-34	3.8300070929799e-17	0.6254876255989075	2.345202963564747e-33	-1.234060297083378e-17	-0.2015373408794403	-7.556439963889953e-34	-1.234060297083378e-17	-0.2015373408794403	-7.556439963889953e-34	-1.39921486377716	6.813520431518555	0.3155948221683501	1.339820504188538	3.475398302078247	-0.1854616701602935	3.217072486877447	69.45484161376953	-14.26314830780029	1.890536785125734	35.42709732055664	13.65770053863525	-0.1479839831590647	1.248129963874817	-6.608817577362061	0.04399374872446088	1.215013861656189	-3.30894947052002	0.09038463979959452	-6.194925785064697	-0.2874120771884918	-0.3597810864448548	-2.597564697265625	-1.409151911735535	-0.4653321504592899	-4.75145959854126	1.792457818984985	0.2614491581916808	-2.02639102935791	-0.1598885506391525	0.3630567789077755	-5.521345615386963	0.2017353624105454	0.3630567789077755	-5.521345615386963	0.2017353624105454	152.261474609375	28.48513221740722	200.3668975830078	-440.7312622070313	226.0818328857422	747.4901123046875	35.02715682983398	-15.25940322875977	125.0237503051758	-74.98291015624997	57.65789794921876	-454.0387573242188	126.7817306518555	-7.137443065643319	-338.0091552734375	13.42529869079591	41.08646392822266	-113.5822906494141	-164.0857696533203	-40.21869277954101	-319.2991638183594	-121.7229385375977	24.06652069091798	275.6106567382812	203.9663696289062	1.419413566589343	-3.31209325790404	-203.9663696289062	-1.419413566589343	-3.312093257904065	
81	0.8	-280.5669555664062	472.3084106445312	236.0611419677734	40.4461364746094	602.9476318359375	288.3306274414062	-222.6366577148437	468.2567749023438	-109.5915069580078	-408.7963256835937	797.5238037109375	210.7582092285156	-116.7807159423828	64.75933837890626	186.2281036376953	-118.2279891967773	258.9073181152344	187.92578125	-141.4080657958984	66.25978851318361	-6.358657836914071	-309.3678588867188	63.10847091674807	210.8426208496093	-252.0202331542969	76.12632751464845	216.3516082763672	107.9630737304687	106.9294815063477	118.5658264160156	-350.9598693847656	86.94769287109378	-144.470687866211	-278.8872985839844	448.9974975585938	234.9014434814453	-52.58499145507813	65.30961608886719	178.0232543945312	-53.06740188598634	130.0256195068359	178.5891418457031	-60.79410934448242	65.80976104736328	113.8276672363281	-116.7807159423828	64.75933837890626	186.2281036376953	-421.8232116699218	794.0294799804688	276.1154174804688	-291.2672119140624	782.9697265625	301.5462036132812	-395.7695312499999	801.0181274414062	145.4009552001953	-412.3232727050781	926.8555297851562	285.1104736328125	-514.5923461914062	453.2352600097657	354.1137695312499	-180.3990783691406	376.161865234375	405.7315673828125	-467.2017822265625	429.1867980957032	11.38119506835935	-434.8500061035156	790.53515625	341.4726867675781	-712.2053833007812	47.83101272583012	392.3317260742187	-577.0575561523438	185.2875213623047	408.4930725097656	-666.312744140625	24.63487243652348	205.847900390625	-842.7785034179688	181.9505767822266	343.5156555175781	-793.1363525390625	150.5009002685547	346.5833740234374	-540.203125	-86.51611328124997	519.2412719726562	-661.7613525390625	38.24406433105473	0.02597045898433448	-530.9752807617188	435.4296264648438	353.6708679199218	-668.6810302734375	3.124498128891032	408.6037292480468	-623.6317749023438	48.94335556030277	413.9908447265624	-653.3834838867188	-4.60754394531246	346.4424438476562	-712.2054443359375	47.83102035522465	392.3316955566406	-420.9576721191406	1265.32373046875	279.1761779785156	nan	nan	nan	nan	nan	nan	nan	nan	nan	-529.4160766601561	1329.420288085938	282.1685485839843	-548.8056030273436	1024.697265625	266.0079040527343	-416.4855346679687	1265.643798828125	279.5600891113281	-363.5014038085937	1102.898315429688	294.1553039550781	-552.7377319335936	1231.530639648438	407.6213989257812	-355.5365905761718	884.9404296875	184.6170349121093	-397.4313049316406	873.70263671875	394.807861328125	-535.6155395507812	891.4635620117188	210.0329284667968	-550.6190795898438	896.079345703125	294.6131896972656	-300.1320800781249	570.099853515625	111.8063125610351	-270.1542663574218	471.5801086425781	173.9318542480468	-299.6457824707031	450.8825073242188	288.6969604492188	-230.7123870849609	467.9648742675781	235.998291015625	-232.7004699707031	411.1318359375	226.7659454345703	-289.1580200195312	213.6277160644532	122.9483108520508	-262.0649108886719	77.22495269775392	179.7196960449218	-245.2613220214844	80.76205444335939	259.5239868164062	-317.2866516113281	33.02074432373049	213.6430358886718	-116.199592590332	33.46000671386719	188.9750061035156	-148.4762878417969	14.99154567718507	144.0301361083984	-516.4996948242188	515.9896240234375	460.1646118164062	-523.4739379882812	457.7422485351563	418.3461608886718	-494.2029724121094	438.3811340332032	289.9375305175781	-447.9100646972656	401.7129211425781	374.2283630371094	-509.4067077636719	355.5171508789063	378.6255187988281	-735.1935424804688	273.8374938964844	431.0117187499999	-805.8582153320312	161.3714447021485	380.1427612304687	-757.8626098632812	151.166732788086	312.0308837890624	-854.43994140625	168.6306610107422	323.5636596679687	-727.0335083007812	38.93604660034184	379.0364379882812	-767.0440673828125	37.34182357788091	413.2561645507812	-409.9138793945312	590.8865356445312	154.3726348876953	-355.0563964843749	563.4273071289062	137.797607421875	-369.2876586914062	506.0381469726562	168.2843475341797	-241.8642578125	286.8128051757812	238.0240478515625	-229.9346618652343	241.4815979003906	189.3850708007812	-236.5285339355469	193.6569213867188	237.6593017578125	-274.8740844726562	429.9396057128906	164.8889465332031	-307.845458984375	415.5945129394531	282.3231201171875	-535.680908203125	609.34716796875	416.1242980957031	-489.7461547851562	555.5432739257812	428.1144714355468	-537.8705444335938	508.1956481933594	411.5755004882812	-572.7488403320312	301.8223876953126	358.9393920898437	-630.1533203125	280.7218322753907	405.7672729492187	-651.9097900390625	240.3497772216797	350.6361694335937	-541.8981323242188	433.6320190429688	415.8934020996093	-525.8987426757812	403.8250122070313	293.7492065429687	-427.9195556640624	954.914794921875	131.3997192382812	-474.2357482910156	954.6087036132812	419.0072326660156	-422.6272583007812	830.7632446289062	285.1927490234375	-422.6272583007812	2.587845595552367e-14	285.1927490234375	-2.7438428401947	-2.998389482498169	-26.68103218078613	4.143427848815917	-24.62881469726562	-18.28682518005371	1.299187302589417	8.032562255859375	3.996454238891602	-2.423074800462447e-16	0	3.957181453704834	7.556256294250487	1.774682402610778	7.96523666381836	1.340807080268861	-17.99838638305664	-29.45042610168457	2.560571432113648	11.77913093566895	2.843023777008057	-1.70416171151558e-16	0	2.783107280731201	-2.964528799057007	6.185919761657715	8.480698585510254	2.964528799057006	-6.185919761657715	8.480698585510254	-0.1913743168115615	4.894576549530029	4.110492706298828	0.191374316811561	-4.894576549530029	4.110492706298828	-3.864328622817992	11.00949096679688	-4.090926170349121	3.864328622817993	-11.00949096679688	-4.090926170349121	0.5050509572029054	-7.283216953277588	90.49112701416016	-4.95307540893555	-14.61678791046143	44.23238754272461	7.068084885880682e-18	0.11543058604002	4.327953765797781e-34	1.093020533089857e-16	1.785037994384766	6.692820486254136e-33	-2.722509642938822e-17	-0.4446195662021637	-1.667056359936416e-33	-2.510713330085306e-17	-0.4100306034088135	-1.537368521632781e-33	-2.752691420005244e-18	-0.04495486244559288	-1.685537368274902e-34	3.039786309163058e-17	0.4964347779750824	1.861332286804243e-33	-9.799168752662921e-18	-0.1600325703620911	-6.000260323626704e-34	-9.799168752662921e-18	-0.1600325703620911	-6.000260323626704e-34	-1.593488693237304	7.591908931732178	0.4041047692298888	1.070991158485413	2.497184038162231	-0.122868463397026	4.119314670562749	77.38948822021484	-16.2435131072998	1.252481818199159	25.45549392700195	10.9173412322998	-0.1490540802478785	1.495896458625793	-7.409562587738037	0.060479309409857	0.9849942326545715	-2.258733987808228	0.0889362543821331	-7.027091979980469	-0.6093407273292542	-0.2726212441921235	-1.63720440864563	-0.9566460251808167	-0.6036583781242375	-5.635184764862061	1.887864828109741	0.1975898593664169	-0.9668364524841309	0.01390371192246677	0.1974709779024121	-5.347291946411133	-0.02692973241209983	0.1974709779024121	-5.347291946411133	-0.02692973241209983	174.8997955322265	30.96982383728026	260.8868713378906	-314.7149353027344	173.7074737548828	539.4111328125	35.47780609130859	-16.36012840270996	103.1002578735352	-54.5977096557617	51.1020393371582	-303.6248168945312	123.4749755859375	-10.52843761444093	-443.297607421875	23.15707969665528	31.6949405670166	-92.30628204345703	-273.0028076171875	-63.89390563964842	-243.4216918945313	-66.2610321044922	22.46245002746582	212.0533752441406	135.79833984375	1.54765558242797	38.61978149414063	-135.79833984375	-1.54765558242797	38.61978149414062	
